<?xml version="1.0" standalone="no"?>
<!DOCTYPE svg PUBLIC "-//W3C//DTD SVG 20010904//EN"
 "http://www.w3.org/TR/2001/REC-SVG-20010904/DTD/svg10.dtd">
<svg version="1.0" xmlns="http://www.w3.org/2000/svg"
 width="300.000000pt" height="300.000000pt" viewBox="0 0 300.000000 300.000000"
 preserveAspectRatio="xMidYMid meet">
<metadata>
Created by potrace 1.11, written by Peter Selinger 2001-2013
</metadata>
<g transform="translate(0.000000,300.000000) scale(0.100000,-0.100000)"
fill="#000000" stroke="none">
<path d="M1369 2616 c-2 -2 -26 -7 -54 -11 -109 -14 -256 -66 -370 -129 -125
-71 -233 -165 -345 -302 -79 -97 -176 -311 -196 -434 -3 -14 -7 -31 -9 -39 -3
-7 -8 -41 -11 -75 -35 -350 79 -671 320 -911 105 -104 178 -157 301 -218 69
-34 215 -85 264 -91 14 -2 49 -7 76 -12 62 -9 223 -10 290 -1 161 22 301 71
436 152 102 62 122 78 219 175 207 207 324 490 321 780 -1 80 -5 141 -15 200
-14 90 -68 244 -113 323 -18 33 -33 61 -33 64 0 2 -12 21 -27 41 -16 20 -31
41 -35 47 -43 63 -161 178 -239 234 -141 100 -253 147 -469 197 -29 7 -305 15
-311 10z"/>
</g>
</svg>
